<svg xmlns="http://www.w3.org/2000/svg" aria-hidden="true">
  <symbol id="floppy_symbol" viewBox="0 0 29 28">
    <path fill="currentColor" d="M.5 0h2.154v2.154H.5zm0 2.154h2.154v2.154H.5zm0 2.154h2.154v2.154H.5zm0 2.154h2.154v2.154H.5z"/>
    <path fill="currentColor" d="M.5 8.615h2.154v2.154H.5zm0 2.155h2.154v2.154H.5z"/>
    <path fill="currentColor" d="M.5 12.923h2.154v2.154H.5zm0 2.154h2.154v2.154H.5z"/>
    <path fill="currentColor" d="M.5 17.23h2.154v2.154H.5zm0 2.155h2.154v2.154H.5z"/>
    <path fill="currentColor" d="M.5 21.538h2.154v2.154H.5zm0 2.154h2.154v2.154H.5zm0 2.154h2.154V28H.5zM24.193 0v2.154h-2.154V0z"/>
    <path fill="currentColor" d="M22.04 0v2.154h-2.155V0zm-2.156 0v2.154H17.73V0zM17.73 0v2.154h-2.154V0z"/>
    <path fill="currentColor" d="M15.577 0v2.154h-2.154V0zm-2.154 0v2.154H11.27V0zM11.27 0v2.154H9.115V0z"/>
    <path fill="currentColor" d="M9.116 0v2.154H6.962V0zM6.96 0v2.154H4.808V0zM4.807 0v2.154H2.653V0zm21.54 2.154v2.154h-2.154V2.154zM6.96 4.308v2.154H4.808V4.308zm.001-2.154v2.154H4.807V2.154zM6.96 6.462v2.154H4.808V6.462zm15.079-2.154v2.154h-2.154V4.308zm.001-2.154v2.154h-2.155V2.154zm-.001 4.308v2.154h-2.154V6.462zM17.73 4.307v2.154h-2.154V4.307z"/>
    <path fill="currentColor" d="M17.73 2.154v2.154h-2.153V2.154zm0 4.307v2.154h-2.154V6.461zm4.31 2.154v2.154h-2.155V8.615zm-2.156 0v2.154H17.73V8.615zm-2.154 0v2.154h-2.153V8.615zm-2.153 0v2.154h-2.154V8.615zm-2.154 0v2.154H11.27V8.615zm-2.153.001v2.154H9.116V8.616zm-2.154-.001v2.154H6.962V8.615zm-2.155 0v2.154H4.807V8.615zm17.232 6.462v2.154h-2.154v-2.154z"/>
    <path fill="currentColor" d="M22.04 15.077v2.154h-2.155v-2.154zm-2.156 0v2.154H17.73v-2.154zm-2.154 0v2.154h-2.153v-2.154zm-2.153 0v2.154h-2.154v-2.154zm-2.154 0v2.154H11.27v-2.154zm-2.153.001v2.154H9.116v-2.154zm-2.154-.001v2.154H6.962v-2.154zm-2.155 0v2.154H4.807v-2.154zm17.232 2.153v2.155H22.04V17.23z"/>
    <path fill="currentColor" d="M6.961 17.23v2.155H4.807V17.23zm17.231 2.155v2.154h-2.154v-2.154zm-17.232 0v2.154H4.808v-2.154z"/>
    <path fill="currentColor" d="M24.193 21.538v2.154h-2.154v-2.154zm-17.232 0v2.154H4.807v-2.154zm0 2.154v2.154H4.807v-2.154zm17.232.001v2.154H22.04v-2.154z"/>
    <path fill="currentColor" d="M26.346 25.845V28h-2.154v-2.154zm-2.154.001V28h-2.154v-2.154z"/>
    <path fill="currentColor" d="M22.039 25.846V28h-2.154v-2.154zm-2.155 0V28H17.73v-2.154zm-2.154-.001V28h-2.154v-2.154z"/>
    <path fill="currentColor" d="M15.577 25.846V28h-2.155v-2.154z"/>
    <path fill="currentColor" d="M13.423 25.846v2.153h-2.154v-2.153z"/>
    <path fill="currentColor" d="M11.27 25.846V28H9.114v-2.154z"/>
    <path fill="currentColor" d="M9.116 25.846V28H6.962v-2.154zm-2.156 0V28H4.808v-2.154zm-2.153-.001V28H2.653v-2.154zM28.5 28h-2.154v-2.154H28.5zm0-2.155h-2.154v-2.154H28.5z"/>
    <path fill="currentColor" d="M28.5 23.693h-2.154v-2.154H28.5zm0-2.155h-2.154v-2.154H28.5z"/>
    <path fill="currentColor" d="M28.5 19.385h-2.154V17.23H28.5z"/>
    <path fill="currentColor" d="M28.5 17.231h-2.154v-2.154H28.5zm0-2.154h-2.154v-2.154H28.5zm0-2.154h-2.154v-2.154H28.5zm0-2.154h-2.154V8.615H28.5zm0-2.154h-2.154V6.461H28.5z"/>
    <path fill="currentColor" d="M28.5 6.462h-2.154V4.308H28.5z"/>
  </symbol>
</svg>


<svg xmlns="http://www.w3.org/2000/svg" width="27" height="24" fill="none"><path fill="#000" d="M6 0H3v3h3V0ZM9 0H6v3h3V0ZM3 3H0v3h3V3ZM3 6H0v3h3V6ZM3 9H0v3h3V9ZM12 0H9v3h3V0ZM6 12H3v3h3v-3ZM9 15H6v3h3v-3ZM12 18H9v3h3v-3ZM21 0h3v3h-3V0ZM18 0h3v3h-3V0ZM24 3h3v3h-3V3ZM24 6h3v3h-3V6ZM24 9h3v3h-3V9ZM15 0h3v3h-3V0ZM21 12h3v3h-3v-3ZM18 15h3v3h-3v-3ZM15 18h3v3h-3v-3ZM15 3h-3v3h3V3ZM15 21h-3v3h3v-3Z"/></svg>
